<svg width="17" height="17" viewBox="0 0 17 17" fill="none" xmlns="http://www.w3.org/2000/svg">
<path d="M0.501824 7.18453C0.551071 6.95471 0.588005 6.72079 0.649564 6.49918C1.09689 4.9397 2.52504 3.84397 4.14607 3.83986C6.95723 3.83165 9.76839 3.82755 12.5754 3.83986C14.5822 3.84807 16.2074 5.48141 16.2238 7.49232C16.232 8.51418 16.2279 9.54015 16.2238 10.562C16.2238 10.9355 15.9611 11.2104 15.6082 11.2104C15.2594 11.2104 14.9967 10.9355 14.9967 10.562C14.9967 9.56067 14.9967 8.55522 14.9967 7.55387C14.9926 6.34733 14.1965 5.3624 13.0187 5.12027C12.8545 5.08744 12.6821 5.07103 12.518 5.07103C9.74787 5.06692 6.97775 5.06692 4.21173 5.07103C2.81641 5.07103 1.73299 6.15856 1.73299 7.55798C1.72888 9.21595 1.72888 10.8739 1.73299 12.5319C1.73299 13.9395 2.81641 15.0188 4.22405 15.0229C4.88067 15.0229 5.53318 15.0229 6.18981 15.0229C6.58788 15.0229 6.86284 15.2815 6.85874 15.6426C6.85463 15.9997 6.57967 16.25 6.18981 16.25C5.53318 16.25 4.88067 16.25 4.22405 16.25C2.31164 16.2418 0.748057 14.8793 0.501824 12.9833C0.49772 12.9546 0.501824 9.08873 0.501824 7.18453Z" fill="#727788"/>
<path d="M5.19249 0.540353C5.50028 0.618327 5.71778 0.692196 5.97222 0.893287C6.43596 1.26264 6.6904 1.73869 6.70682 2.33375C6.71503 2.69489 6.45238 2.97396 6.10765 2.97806C5.76703 2.98627 5.50028 2.72772 5.47976 2.37479C5.45924 2.00544 5.2048 1.74689 4.85597 1.751C4.51945 1.7551 4.26911 2.00954 4.24859 2.37479C4.22807 2.72772 3.96132 2.98627 3.6207 2.97806C3.27597 2.96985 3.01743 2.69489 3.02153 2.33375C3.02564 1.48014 3.65763 0.725028 4.51945 0.552664C4.55638 0.544457 4.90111 0.487002 5.19249 0.540353Z" fill="#727788"/>
<path d="M12.1773 0.519821C12.4851 0.597795 12.7847 0.692184 13.0391 0.893274C13.5029 1.26262 13.7573 1.73867 13.7737 2.33374C13.7819 2.69488 13.5193 2.97394 13.1745 2.97805C12.8339 2.98625 12.5672 2.72771 12.5467 2.37478C12.5261 2.00543 12.2717 1.74688 11.9229 1.75099C11.5863 1.75509 11.336 2.00953 11.3155 2.37478C11.295 2.72771 11.0282 2.98625 10.6876 2.97805C10.3429 2.96984 10.0843 2.69488 10.0884 2.33374C10.0925 1.48013 10.7245 0.729119 11.5863 0.552652C11.9106 0.48699 12.0131 0.491094 12.1773 0.519821Z" fill="#727788"/>
<path d="M8.70567 15.0106C8.70567 14.6043 8.70567 14.2104 8.70567 13.8164C8.70978 12.7617 9.51824 11.9532 10.5729 11.9491C10.893 11.9491 11.2172 11.9491 11.562 11.9491C11.562 11.7152 11.5579 11.4854 11.562 11.2597C11.5743 10.837 11.9929 10.5538 12.3869 10.6975C12.629 10.7836 12.7849 11.0093 12.789 11.2761C12.7931 11.4936 12.789 11.7152 12.789 11.9491C13.1173 11.9491 13.4333 11.9491 13.7493 11.9491C14.6399 11.9532 15.3663 12.5278 15.5674 13.3937C15.6002 13.5332 15.6084 13.6769 15.6125 13.8205C15.6166 14.2145 15.6125 14.6085 15.6125 15.0106C15.8834 15.0435 16.0927 15.1625 16.1912 15.4251C16.3307 15.8068 16.0639 16.2172 15.6576 16.2459C15.6125 16.25 15.5674 16.2459 15.5181 16.2459C13.2774 16.2459 11.0367 16.2459 8.79596 16.2459C8.39378 16.2459 8.12292 16.0325 8.09009 15.6919C8.06136 15.343 8.28708 15.0845 8.70567 15.0106ZM14.3895 15.0147C14.3895 14.6085 14.3895 14.2145 14.3895 13.8205C14.3854 13.4347 14.131 13.1762 13.7452 13.1721C12.6905 13.1721 11.6358 13.1721 10.5811 13.1721C10.1954 13.1721 9.94094 13.4306 9.93684 13.8205C9.93684 14.1775 9.93684 15.0106 9.93684 15.0106C11.4142 15.0147 12.8957 15.0147 14.3895 15.0147Z" fill="#727788"/>
<path d="M12.1776 10.1639C11.5374 10.1639 11.086 9.53194 11.3322 8.94098C11.4594 8.6373 11.6359 8.35003 11.8165 8.07507C11.9765 7.82883 12.3582 7.81242 12.5141 8.05455C12.7234 8.37055 12.9286 8.70296 13.0558 9.06C13.2446 9.5894 12.7645 10.1639 12.1776 10.1639Z" fill="#727788"/>
<path d="M4.52754 8.1079C4.19102 8.1079 3.91196 7.83294 3.91606 7.49232C3.91606 7.1558 4.19102 6.87674 4.53164 6.88084C4.86816 6.88084 5.14312 7.1558 5.14312 7.49643C5.13902 7.83294 4.86406 8.1079 4.52754 8.1079Z" fill="#727788"/>
<path d="M7.78204 7.50051C7.77793 7.83703 7.49887 8.11199 7.15825 8.10789C6.82173 8.10378 6.55087 7.82472 6.55498 7.4841C6.55908 7.14758 6.83815 6.87262 7.17877 6.88082C7.51529 6.88493 7.78614 7.16399 7.78204 7.50051Z" fill="#727788"/>
<path d="M9.81773 6.88084C10.1542 6.88495 10.4292 7.16401 10.4251 7.50053C10.421 7.83705 10.1419 8.11201 9.80542 8.1079C9.4689 8.1038 9.19394 7.82474 9.19804 7.48822C9.20215 7.1476 9.48121 6.87674 9.81773 6.88084Z" fill="#727788"/>
<path d="M4.52359 9.55246C4.86011 9.55246 5.13917 9.82742 5.13917 10.1639C5.13917 10.5005 4.86421 10.7795 4.52769 10.7795C4.19117 10.7795 3.91211 10.5046 3.91211 10.168C3.91211 9.82742 4.18707 9.55246 4.52359 9.55246Z" fill="#727788"/>
<path d="M7.78204 10.1598C7.78614 10.4964 7.51118 10.7754 7.17466 10.7795C6.83815 10.7836 6.55908 10.5087 6.55498 10.1722C6.55087 9.83154 6.82583 9.55658 7.16235 9.55247C7.50297 9.54837 7.78204 9.82333 7.78204 10.1598Z" fill="#727788"/>
<path d="M4.52344 12.1954C4.85995 12.1913 5.13902 12.4662 5.14312 12.8027C5.14723 13.1393 4.87227 13.4183 4.53575 13.4224C4.19923 13.4265 3.92017 13.1516 3.91606 12.815C3.91196 12.4744 4.18281 12.1954 4.52344 12.1954Z" fill="#727788"/>
<path d="M7.78204 12.8027C7.78614 13.1393 7.51118 13.4183 7.17466 13.4224C6.83815 13.4265 6.55908 13.1516 6.55498 12.815C6.55087 12.4744 6.82583 12.1995 7.16235 12.1954C7.50297 12.1913 7.78204 12.4621 7.78204 12.8027Z" fill="#727788"/>
</svg>
