<svg width="16" height="12" viewBox="0 0 16 12" fill="none" xmlns="http://www.w3.org/2000/svg">
<path d="M1.75 0H14.25C15.216 0 16 0.784 16 1.75V10.25C16 10.7141 15.8156 11.1592 15.4874 11.4874C15.1592 11.8156 14.7141 12 14.25 12H1.75C1.28587 12 0.840752 11.8156 0.512563 11.4874C0.184374 11.1592 0 10.7141 0 10.25L0 1.75C0 0.784 0.784 0 1.75 0ZM1.5 10.251C1.5 10.389 1.612 10.501 1.75 10.501H14.25C14.3163 10.501 14.3799 10.4747 14.4268 10.4278C14.4737 10.3809 14.5 10.3173 14.5 10.251V3.809L8.38 7.397C8.2648 7.4647 8.13362 7.50039 8 7.50039C7.86638 7.50039 7.7352 7.4647 7.62 7.397L1.5 3.809V10.251ZM14.5 2.07V1.75C14.5 1.6837 14.4737 1.62011 14.4268 1.57322C14.3799 1.52634 14.3163 1.5 14.25 1.5H1.75C1.6837 1.5 1.62011 1.52634 1.57322 1.57322C1.52634 1.62011 1.5 1.6837 1.5 1.75V2.07L8 5.88L14.5 2.07Z" fill="#727788"/>
</svg>
