<svg width="50" height="50" viewBox="0 0 215 263" fill="none" xmlns="http://www.w3.org/2000/svg">
<path d="M1.46646 136.164L24.8127 117.769V107.506C24.685 96.5657 26.7294 85.7092 30.8275 75.565C34.9256 65.4209 40.996 56.1907 48.6869 48.4095C56.3779 40.6282 65.5365 34.4504 75.6321 30.2341C85.7277 26.0178 96.5596 23.8467 107.5 23.8467C118.441 23.8467 129.273 26.0178 139.369 30.2341C149.464 34.4504 158.623 40.6282 166.314 48.4095C174.005 56.1907 180.075 65.4209 184.173 75.565C188.271 85.7092 190.316 96.5657 190.188 107.506V117.769L213.534 136.164C214.042 136.559 214.527 136.976 215 137.393V107.506C215.146 93.2959 212.473 79.1983 207.136 66.0281C201.799 52.8579 193.903 40.8765 183.907 30.7769C173.91 20.6772 162.01 12.6596 148.895 7.18792C135.78 1.7162 121.711 -1.10114 107.5 -1.10114C93.2898 -1.10114 79.2203 1.7162 66.1055 7.18792C52.9907 12.6596 41.0908 20.6772 31.094 30.7769C21.0973 40.8765 13.202 52.8579 7.86491 66.0281C2.5278 79.1983 -0.145281 93.2959 0.000268561 107.506V137.393C0.473961 136.976 0.958932 136.559 1.46646 136.164Z" fill="#CDBC7A"/>
<path d="M107.506 190.74C99.141 190.74 90.9639 188.26 84.0086 183.612C77.0534 178.965 71.6325 172.36 68.4314 164.632C65.2302 156.903 64.3927 148.399 66.0246 140.195C67.6565 131.991 71.6846 124.455 77.5996 118.54C83.5145 112.625 91.0505 108.597 99.2548 106.965C107.459 105.333 115.963 106.171 123.691 109.372C131.419 112.573 138.025 117.994 142.672 124.949C147.319 131.904 149.8 140.081 149.8 148.446C149.788 159.66 145.328 170.41 137.399 178.339C129.47 186.269 118.719 190.728 107.506 190.74ZM107.506 130.965C104.048 130.965 100.669 131.99 97.7937 133.911C94.9189 135.832 92.6783 138.562 91.3551 141.756C90.032 144.951 89.6858 148.466 90.3603 151.857C91.0348 155.248 92.6998 158.363 95.1446 160.808C97.5895 163.252 100.704 164.917 104.095 165.592C107.487 166.266 111.001 165.92 114.196 164.597C117.39 163.274 120.12 161.033 122.041 158.159C123.962 155.284 124.987 151.904 124.987 148.446C124.984 143.811 123.142 139.366 119.864 136.088C116.586 132.811 112.141 130.968 107.506 130.965Z" fill="#CDBC7A"/>
<path d="M108.104 226.696C66.9262 226.696 44.1777 193.154 43.2078 191.733L63.8924 178.018C64.5465 179.011 80.1445 201.962 108.104 201.962H109.615C136.683 201.161 151.593 178.999 152.225 178.052L172.921 191.733C170.665 195.195 149.405 225.568 110.348 226.696H108.104Z" fill="#001C55"/>
<path d="M108.126 262.572C46.783 262.572 13.5568 211.82 12.1357 209.654L33.0233 196.244C33.3053 196.684 61.5238 239.598 111.487 237.692C156.454 235.967 180.488 200.327 183.082 196.267L203.993 209.62C200.688 214.797 170.022 260.283 112.435 262.482C110.98 262.55 109.547 262.572 108.126 262.572Z" fill="#001C55"/>
</svg>
