<svg width="60" height="50" viewBox="0 0 139 181" fill="none" xmlns="http://www.w3.org/2000/svg">
<path d="M131.627 122.8H7.42635V62.12C7.34225 53.9092 8.88684 45.7632 11.9708 38.153C15.0547 30.5429 19.6168 23.6197 25.3933 17.7838C31.1697 11.9479 38.0458 7.31511 45.624 4.15338C53.2021 0.991648 61.3319 -0.636292 69.5432 -0.636292C77.7544 -0.636292 85.8842 0.991648 93.4624 4.15338C101.041 7.31511 107.917 11.9479 113.693 17.7838C119.47 23.6197 124.032 30.5429 127.116 38.153C130.2 45.7632 131.744 53.9092 131.66 62.12L131.627 122.8ZM21.7638 108.462H117.29V62.12C117.473 55.7327 116.373 49.3736 114.054 43.419C111.736 37.4643 108.247 32.0351 103.794 27.4526C99.3409 22.87 94.0137 19.2273 88.1278 16.7398C82.2419 14.2523 75.9168 12.9706 69.5269 12.9706C63.1369 12.9706 56.8119 14.2523 50.926 16.7398C45.0401 19.2273 39.7129 22.87 35.2596 27.4526C30.8063 32.0351 27.3174 37.4643 24.9993 43.419C22.6812 49.3736 21.581 55.7327 21.7638 62.12V108.462Z" fill="#CDBC7A"/>
<path d="M69.5076 30.4083L130.767 78.6798C133.231 80.6211 135.223 83.0958 136.592 85.9178C137.961 88.7398 138.672 91.8356 138.673 94.9723V180.71H0.32959V94.9788C0.329046 91.8414 1.04086 88.7448 2.41135 85.9225C3.78185 83.1002 5.77524 80.626 8.24123 78.6863L69.5076 30.4083Z" fill="white"/>
<path d="M69.5076 110.216C64.6741 110.216 59.9491 108.782 55.9302 106.097C51.9112 103.412 48.7789 99.5947 46.9291 95.1291C45.0794 90.6635 44.5955 85.7497 45.5384 81.009C46.4814 76.2684 48.809 71.9138 52.2268 68.496C55.6446 65.0781 59.9992 62.7506 64.7399 61.8076C69.4805 60.8646 74.3943 61.3486 78.8599 63.1983C83.3255 65.048 87.1423 68.1804 89.8277 72.1993C92.5131 76.2183 93.9464 80.9433 93.9464 85.7768C93.9395 92.2562 91.3625 98.4683 86.7808 103.05C82.1992 107.632 75.9871 110.209 69.5076 110.216ZM69.5076 75.6754C67.5098 75.6754 65.5568 76.2679 63.8956 77.3778C62.2344 78.4878 60.9397 80.0654 60.1752 81.9112C59.4106 83.7569 59.2106 85.788 59.6004 87.7475C59.9901 89.7069 60.9522 91.5068 62.3649 92.9195C63.7776 94.3322 65.5775 95.2943 67.5369 95.684C69.4964 96.0738 71.5275 95.8738 73.3732 95.1092C75.219 94.3447 76.7966 93.05 77.9066 91.3888C79.0165 89.7276 79.609 87.7746 79.609 85.7768C79.6073 83.0983 78.5424 80.53 76.6485 78.636C74.7545 76.742 72.1861 75.6772 69.5076 75.6754Z" fill="#001C55"/>
<path d="M69.8594 130.992C46.0659 130.992 32.9145 111.61 32.3606 110.789L44.3063 102.864C44.6908 103.418 53.6973 116.654 69.8594 116.654H70.7327C86.3735 116.192 94.989 103.386 95.3474 102.838L107.306 110.789C106.003 112.79 93.7247 130.34 71.1563 130.992H69.8594Z" fill="#001C55"/>
<path d="M69.8727 151.722C34.4267 151.722 15.2211 122.396 14.4065 121.145L26.476 113.396C26.6324 113.65 42.9445 138.447 71.8083 137.346C97.7981 136.349 111.686 115.755 113.185 113.409L125.267 121.125C123.351 124.116 105.632 150.399 72.3557 151.67C71.5215 151.709 70.6939 151.722 69.8727 151.722Z" fill="#001C55"/>
</svg>
